<svg id="visual" viewBox="0 0 900 600" width="900" height="600" xmlns="http://www.w3.org/2000/svg" xmlns:xlink="http://www.w3.org/1999/xlink" version="1.1"><rect x="0" y="0" width="900" height="600" fill="#001220"></rect><path d="M0 369L21.5 368.2C43 367.3 86 365.7 128.8 378.5C171.7 391.3 214.3 418.7 257.2 429.7C300 440.7 343 435.3 385.8 435.2C428.7 435 471.3 440 514.2 439.8C557 439.7 600 434.3 642.8 428.7C685.7 423 728.3 417 771.2 414.7C814 412.3 857 413.7 878.5 414.3L900 415L900 601L878.5 601C857 601 814 601 771.2 601C728.3 601 685.7 601 642.8 601C600 601 557 601 514.2 601C471.3 601 428.7 601 385.8 601C343 601 300 601 257.2 601C214.3 601 171.7 601 128.8 601C86 601 43 601 21.5 601L0 601Z" fill="#fa7268"></path><path d="M0 398L21.5 410.7C43 423.3 86 448.7 128.8 452C171.7 455.3 214.3 436.7 257.2 432.2C300 427.7 343 437.3 385.8 445.5C428.7 453.7 471.3 460.3 514.2 464C557 467.7 600 468.3 642.8 461.5C685.7 454.7 728.3 440.3 771.2 442C814 443.7 857 461.3 878.5 470.2L900 479L900 601L878.5 601C857 601 814 601 771.2 601C728.3 601 685.7 601 642.8 601C600 601 557 601 514.2 601C471.3 601 428.7 601 385.8 601C343 601 300 601 257.2 601C214.3 601 171.7 601 128.8 601C86 601 43 601 21.5 601L0 601Z" fill="#ef5f67"></path><path d="M0 503L21.5 499.5C43 496 86 489 128.8 480.3C171.7 471.7 214.3 461.3 257.2 463.8C300 466.3 343 481.7 385.8 487.7C428.7 493.7 471.3 490.3 514.2 480.7C557 471 600 455 642.8 447.2C685.7 439.3 728.3 439.7 771.2 446C814 452.3 857 464.7 878.5 470.8L900 477L900 601L878.5 601C857 601 814 601 771.2 601C728.3 601 685.7 601 642.8 601C600 601 557 601 514.2 601C471.3 601 428.7 601 385.8 601C343 601 300 601 257.2 601C214.3 601 171.7 601 128.8 601C86 601 43 601 21.5 601L0 601Z" fill="#e34c67"></path><path d="M0 522L21.5 515.8C43 509.7 86 497.3 128.8 497.8C171.7 498.3 214.3 511.7 257.2 517.2C300 522.7 343 520.3 385.8 520.3C428.7 520.3 471.3 522.7 514.2 518.7C557 514.7 600 504.3 642.8 505.3C685.7 506.3 728.3 518.7 771.2 519.8C814 521 857 511 878.5 506L900 501L900 601L878.5 601C857 601 814 601 771.2 601C728.3 601 685.7 601 642.8 601C600 601 557 601 514.2 601C471.3 601 428.7 601 385.8 601C343 601 300 601 257.2 601C214.3 601 171.7 601 128.8 601C86 601 43 601 21.5 601L0 601Z" fill="#d53867"></path><path d="M0 562L21.5 562.5C43 563 86 564 128.8 559.8C171.7 555.7 214.3 546.3 257.2 540.5C300 534.7 343 532.3 385.8 534.7C428.7 537 471.3 544 514.2 550.8C557 557.7 600 564.3 642.8 565.3C685.7 566.3 728.3 561.7 771.2 557.7C814 553.7 857 550.3 878.5 548.7L900 547L900 601L878.5 601C857 601 814 601 771.2 601C728.3 601 685.7 601 642.8 601C600 601 557 601 514.2 601C471.3 601 428.7 601 385.8 601C343 601 300 601 257.2 601C214.3 601 171.7 601 128.8 601C86 601 43 601 21.5 601L0 601Z" fill="#c62368"></path></svg>